<?xml version="1.0" encoding="utf-8"?>
<!-- Generator: Adobe Illustrator 19.2.0, SVG Export Plug-In . SVG Version: 6.00 Build 0)  -->
<svg version="1.1" id="Layer_1" xmlns="http://www.w3.org/2000/svg" xmlns:xlink="http://www.w3.org/1999/xlink" x="0px" y="0px"
	 viewBox="0 0 405 87" style="enable-background:new 0 0 405 87;" xml:space="preserve">
<style type="text/css">
	.st0{fill:#4B4F54;}
	.st1{fill:url(#SVGID_1_);}
	.st2{fill:url(#SVGID_2_);}
</style>
<g>
	<polygon class="st0" points="86.6,33 97.3,33 97.3,63.1 101.1,63.1 101.1,33 111.8,33 111.8,29.2 86.6,29.2 	"/>
	<path class="st0" d="M130.6,29c-4.8,0-8.9,1.7-12.3,5.1c-3.4,3.4-5.1,7.5-5.1,12.3c0,4.8,1.7,8.9,5.1,12.3
		c3.4,3.4,7.5,5.1,12.3,5.1c4.8,0,8.9-1.7,12.3-5.1c3.4-3.4,5.1-7.5,5.1-12.3c0-4.8-1.7-8.9-5.1-12.3C139.5,30.7,135.4,29,130.6,29z
		 M144.2,46.4c0,3.7-1.3,7-4,9.6c-2.6,2.6-5.9,4-9.6,4c-3.7,0-7-1.3-9.6-4c-2.6-2.6-4-5.9-4-9.6c0-3.7,1.3-6.9,4-9.6
		c2.6-2.6,5.9-4,9.6-4c3.7,0,6.9,1.3,9.6,4C142.8,39.5,144.2,42.7,144.2,46.4z"/>
	<path class="st0" d="M197.9,32.8c0.8-0.1,1.7,0,2.8,0.3c2.2,0.5,4,1.5,5.5,3.1L207,37l2.8-2.7l-0.8-0.9c-2-2.1-4.5-3.5-7.4-4.2
		c-1.1-0.3-2.2-0.4-3.2-0.4c-0.3,0-0.6,0-0.8,0c-2.6,0.2-4.9,1.3-6.6,3.3c-1.8,2-2.6,4.3-2.4,7c0.3,4.6,3.4,7.6,9.1,8.9l0.7,0.2
		c2.6,0.5,4.6,1.2,5.7,2.1c1.1,0.8,1.6,1.9,1.7,3.3c0.1,2-0.4,3.5-1.7,4.6c-1.1,1-2.6,1.5-4.4,1.6c-0.7,0.1-1.7,0-2.7-0.3
		c-2.1-0.5-3.9-1.5-5.4-3.1l-0.8-0.9l-2.8,2.6l0.8,0.9c2.9,3,6.4,4.6,10.5,4.6c0.3,0,0.5,0,0.7,0c2.7-0.2,5.1-1.1,6.9-2.7
		c2.1-1.9,3-4.4,2.8-7.6c-0.2-2.7-1.3-4.8-3.4-6.3c-1.5-1.1-3.6-1.9-6.4-2.5l-0.8-0.1c-4.4-0.8-6.5-2.6-6.7-5.5
		c-0.1-1.6,0.4-3,1.4-4.2C194.9,33.5,196.2,32.9,197.9,32.8z"/>
	<polygon class="st0" points="213.9,33 224.6,33 224.6,63.1 228.4,63.1 228.4,33 239.1,33 239.1,29.2 213.9,29.2 	"/>
	<path class="st0" d="M321,29c-4.8,0-8.9,1.7-12.3,5.1c-3.4,3.4-5.1,7.5-5.1,12.3c0,4.8,1.7,8.9,5.1,12.3c3.4,3.4,7.5,5.1,12.3,5.1
		c4.8,0,8.9-1.7,12.3-5.1c3.4-3.4,5.1-7.5,5.1-12.3c0-4.8-1.7-8.9-5.1-12.3C329.9,30.7,325.7,29,321,29z M334.5,46.4
		c0,3.7-1.3,7-4,9.6c-2.6,2.6-5.9,4-9.6,4c-3.7,0-7-1.3-9.6-4c-2.6-2.6-4-5.9-4-9.6c0-3.7,1.3-6.9,4-9.6c2.6-2.6,5.9-4,9.6-4
		c3.7,0,6.9,1.3,9.6,4C333.2,39.5,334.5,42.7,334.5,46.4z"/>
	<rect x="346.5" y="29.2" class="st0" width="3.8" height="34"/>
	<path class="st0" d="M382.1,34.1c-3.3-3.3-7.4-5-12-5h-11.3v34h11.3c4.7,0,8.7-1.7,12-5c3.3-3.3,5-7.4,5-12
		C387.1,41.5,385.4,37.4,382.1,34.1z M383.2,46.2c0,3.6-1.3,6.7-3.9,9.3c-2.6,2.6-5.7,3.9-9.3,3.9h-7.5V33h7.5
		c3.6,0,6.7,1.3,9.3,3.9C381.9,39.4,383.2,42.5,383.2,46.2z"/>
	<rect x="243.5" y="29.2" class="st0" width="21.8" height="3.8"/>
	<polygon class="st0" points="247.3,48.1 263.5,48.1 263.5,44.2 243.5,44.2 243.5,63.1 265.3,63.1 265.3,59.3 247.3,59.3 	"/>
	<polygon class="st0" points="170.3,29.2 168.7,29.2 167.6,29.2 166.1,29.2 152,63.1 156.1,63.1 168.2,34.1 175.7,52.2 175.7,52.2 
		180.2,63.1 184.3,63.1 	"/>
	<path class="st0" d="M295.8,48.9c2-2.2,3.1-4.9,3.1-7.9c0-3.3-1.2-6.1-3.5-8.3c-2.3-2.3-5.1-3.5-8.4-3.5H271v34h3.8V33l12.2,0
		c1.8,0,3.6,0.5,5,1.6c2.1,1.7,3.1,3.8,3.1,6.4c0,2-0.8,4-2.2,5.5c-1.4,1.5-3.2,2.3-5.3,2.5h-2l0.2,3.8l6.1,10.4h4.4l-6.2-10.7
		C292.3,51.8,294.3,50.6,295.8,48.9z"/>
</g>
<g>
	<linearGradient id="SVGID_1_" gradientUnits="userSpaceOnUse" x1="14.4669" y1="58.7402" x2="51.647" y2="27.5424">
		<stop  offset="3.574274e-03" style="stop-color:#05CE7C"/>
		<stop  offset="0.9709" style="stop-color:#00A887"/>
	</linearGradient>
	<path class="st1" d="M42.1,45.3v-7.1c0-1.5-1.2-2.7-2.7-2.7h-7.1c-1.5,0-2.7,1.2-2.7,2.7v21.9c0,0,0,0,0,0v4h-6.5V37
		c0-0.8-0.7-1.5-1.5-1.5h-1.2v-6.5h28.4v26.9c0,0.8,0.7,1.5,1.5,1.5c0.8,0,1.5-0.7,1.5-1.5V28.6c0-1.5-1.2-2.7-2.7-2.7H20
		c-1.5,0-2.7,1.2-2.7,2.7v7.1c0,1.5,1.2,2.7,2.7,2.7h0v25.9c0,1.5,1.2,2.7,2.7,2.7h7.1c1.5,0,2.7-1.2,2.7-2.7v-13c0,0,0,0,0,0V38.5
		h6.5V45h-3c-0.8,0-1.5,0.7-1.5,1.5s0.7,1.5,1.5,1.5h3.3C40.9,48,42.1,46.8,42.1,45.3z"/>
	<linearGradient id="SVGID_2_" gradientUnits="userSpaceOnUse" x1="37.2028" y1="63.1179" x2="70.4113" y2="35.2527">
		<stop  offset="3.574274e-03" style="stop-color:#05CE7C"/>
		<stop  offset="0.9709" style="stop-color:#00A887"/>
	</linearGradient>
	<path class="st2" d="M61.3,25.9l-6.2,0c-0.8,0-1.5,0.6-1.6,1.4c-0.1,0.9,0.6,1.7,1.5,1.7h6v6.5h-1.2c-0.8,0-1.5,0.7-1.5,1.5v27.1
		H42.1V51.3l-0.3,0.1c-1.6,0.3-2.8,1.7-2.8,3.4v9.7c0,1.5,1.2,2.7,2.7,2.7h16.7c1.5,0,2.7-1.2,2.7-2.7V38.5h0c1.5,0,2.7-1.2,2.7-2.7
		v-7.1C64,27.1,62.8,25.9,61.3,25.9z"/>
</g>
</svg>
